<svg xmlns="http://www.w3.org/2000/svg" version="1.1" xmlns:xlink="http://www.w3.org/1999/xlink" xmlns:svgjs="http://svgjs.dev/svgjs" width="2000" height="1500" viewBox="0 0 2000 1500"><rect width="2000" height="1500" fill="#ffffff"></rect><g transform="matrix(0.75,0,0,0.75,250.91824706143268,250.125)"><svg viewBox="0 0 300 200" data-background-color="#ffffff" preserveAspectRatio="xMidYMid meet" height="1333" width="2000" xmlns="http://www.w3.org/2000/svg" xmlns:xlink="http://www.w3.org/1999/xlink"><g id="tight-bounds" transform="matrix(1,0,0,1,-0.18364941228654175,0)"><svg viewBox="0 0 300.3672988245731 200" height="200" width="300.3672988245731"><g><svg viewBox="0 0 328.63173436735013 218.81991525268177" height="200" width="300.3672988245731"><g><rect width="4.146352361402511" height="218.81991525268177" x="126.50081485851554" y="0" fill="#8abe53" opacity="1" stroke-width="0" stroke="transparent" fill-opacity="1" class="rect-qz-0" data-fill-palette-color="primary" rx="1%" id="qz-0" data-palette-color="#8abe53"></rect></g><g transform="matrix(1,0,0,1,141.50149277332778,0.5443281473947224)"><svg viewBox="0 0 187.13024159402238 217.73125895789232" height="217.73125895789232" width="187.13024159402238"><g id="textblocktransform"><svg viewBox="0 0 187.13024159402238 217.73125895789232" height="217.73125895789232" width="187.13024159402238" id="textblock"><g><svg viewBox="0 0 187.13024159402238 198.764" height="198.764" width="187.13024159402238"><g transform="matrix(1,0,0,1,0,0)"><svg width="187.13024159402238" viewBox="2.000000000000001 -36.15 152.20000000000002 157.20000000000002" height="198.764" data-palette-color="#8abe53"><svg></svg><svg></svg><svg></svg><svg></svg><g class="wordmark-text-0" data-fill-palette-color="primary" id="text-0"><path d="M11.4 0.6c-3.1 0-5.44-1.127-7.02-3.38-1.587-2.247-2.38-5.703-2.38-10.37v0c0-4.667 0.793-8.127 2.38-10.38 1.58-2.247 3.92-3.37 7.02-3.37v0c3.1 0 5.443 1.123 7.03 3.37 1.58 2.253 2.37 5.713 2.37 10.38v0c0 4.667-0.79 8.123-2.37 10.37-1.587 2.253-3.93 3.38-7.03 3.38zM11.4-3.05c3.4 0 5.1-3.05 5.1-9.15v0-1.9c0-6.1-1.7-9.15-5.1-9.15v0c-3.4 0-5.1 3.05-5.1 9.15v0 1.9c0 6.1 1.7 9.15 5.1 9.15zM32.9 0.6c-2.833 0-4.95-0.743-6.35-2.23-1.4-1.48-2.1-3.303-2.1-5.47v0c0-0.4 0.01-0.677 0.03-0.83 0.013-0.147 0.02-0.237 0.02-0.27v0h4.3v0.5c0 1.567 0.4 2.743 1.2 3.53 0.8 0.78 1.833 1.17 3.1 1.17v0c1.133 0 2.073-0.343 2.82-1.03 0.753-0.68 1.13-1.637 1.13-2.87v0c0-0.933-0.233-1.7-0.7-2.3-0.467-0.6-1.033-1.077-1.7-1.43-0.667-0.347-1.6-0.737-2.8-1.17v0c-1.467-0.5-2.65-1-3.55-1.5-0.9-0.5-1.667-1.243-2.3-2.23-0.633-0.98-0.95-2.27-0.95-3.87v0c0-2.3 0.743-4.127 2.23-5.48 1.48-1.347 3.47-2.02 5.97-2.02v0c2.367 0 4.217 0.69 5.55 2.07 1.333 1.387 2 3.097 2 5.13v0l-0.05 0.95h-4.25v-0.45c0-1.167-0.283-2.143-0.85-2.93-0.567-0.78-1.5-1.17-2.8-1.17v0c-1.3 0-2.217 0.367-2.75 1.1-0.533 0.733-0.8 1.567-0.8 2.5v0c0 1.133 0.393 1.973 1.18 2.52 0.78 0.553 1.987 1.097 3.62 1.63v0c1.5 0.533 2.733 1.057 3.7 1.57 0.967 0.52 1.793 1.297 2.48 2.33 0.68 1.033 1.02 2.417 1.02 4.15v0c0 2.7-0.757 4.723-2.27 6.07-1.52 1.353-3.563 2.03-6.13 2.03zM45.8 0v-36.15h4.1v36.15zM63.8 0.6c-3.1 0-5.443-1.127-7.03-3.38-1.58-2.247-2.37-5.703-2.37-10.37v0c0-4.667 0.79-8.127 2.37-10.38 1.587-2.247 3.93-3.37 7.03-3.37v0c3.1 0 5.443 1.123 7.03 3.37 1.58 2.253 2.37 5.713 2.37 10.38v0c0 4.667-0.79 8.123-2.37 10.37-1.587 2.253-3.93 3.38-7.03 3.38zM63.8-3.05c3.4 0 5.1-3.05 5.1-9.15v0-1.9c0-6.1-1.7-9.15-5.1-9.15v0c-3.4 0-5.1 3.05-5.1 9.15v0 1.9c0 6.1 1.7 9.15 5.1 9.15z" fill="#8abe53" fill-rule="nonzero" stroke="none" stroke-width="1" stroke-linecap="butt" stroke-linejoin="miter" stroke-miterlimit="10" stroke-dasharray="" stroke-dashoffset="0" font-family="none" font-weight="none" font-size="none" text-anchor="none" style="mix-blend-mode: normal" data-fill-palette-color="primary" opacity="1"></path><path transform="translate(0,40.15)" d="M3 0v-26.3h3.1l0.55 3.05h0.3c1.3-2.433 3.3-3.65 6-3.65v0c2.833 0 4.7 1.267 5.6 3.8v0c0.667-1.233 1.577-2.177 2.73-2.83 1.147-0.647 2.37-0.97 3.67-0.97v0c4.133 0 6.2 2.65 6.2 7.95v0 18.95h-4.1v-18.65c0-1.7-0.3-2.893-0.9-3.58-0.6-0.68-1.433-1.02-2.5-1.02v0c-1.267 0-2.333 0.65-3.2 1.95-0.867 1.3-1.3 3.05-1.3 5.25v0 16.05h-4.1v-18.65c0-1.7-0.3-2.893-0.9-3.58-0.6-0.68-1.433-1.02-2.5-1.02v0c-1.267 0-2.34 0.65-3.22 1.95-0.887 1.3-1.33 3.05-1.33 5.25v0 16.05zM43.65 0.6c-2.1 0-3.71-0.627-4.83-1.88-1.113-1.247-1.67-3.27-1.67-6.07v0-18.95h4.1v18.65c0 1.7 0.317 2.89 0.95 3.57 0.633 0.687 1.55 1.03 2.75 1.03v0c1.367 0 2.523-0.65 3.47-1.95 0.953-1.3 1.43-3.05 1.43-5.25v0-16.05h4.1v26.3h-3.1l-0.55-3.05h-0.3c-1.367 2.433-3.483 3.65-6.35 3.65zM67.05 0.6c-2.833 0-4.95-0.743-6.35-2.23-1.4-1.48-2.1-3.303-2.1-5.47v0c0-0.4 0.01-0.677 0.03-0.83 0.013-0.147 0.02-0.237 0.02-0.27v0h4.3v0.5c0 1.567 0.4 2.743 1.2 3.53 0.8 0.78 1.833 1.17 3.1 1.17v0c1.133 0 2.077-0.343 2.83-1.03 0.747-0.68 1.12-1.637 1.12-2.87v0c0-0.933-0.233-1.7-0.7-2.3-0.467-0.6-1.033-1.077-1.7-1.43-0.667-0.347-1.6-0.737-2.8-1.17v0c-1.467-0.5-2.65-1-3.55-1.5-0.9-0.5-1.667-1.243-2.3-2.23-0.633-0.98-0.95-2.27-0.95-3.87v0c0-2.3 0.743-4.127 2.23-5.48 1.48-1.347 3.47-2.02 5.97-2.02v0c2.367 0 4.217 0.69 5.55 2.07 1.333 1.387 2 3.097 2 5.13v0l-0.05 0.95h-4.25v-0.45c0-1.167-0.283-2.143-0.85-2.93-0.567-0.78-1.5-1.17-2.8-1.17v0c-1.3 0-2.217 0.367-2.75 1.1-0.533 0.733-0.8 1.567-0.8 2.5v0c0 1.133 0.393 1.973 1.18 2.52 0.78 0.553 1.987 1.097 3.62 1.63v0c1.5 0.533 2.733 1.057 3.7 1.57 0.967 0.52 1.793 1.297 2.48 2.33 0.68 1.033 1.02 2.417 1.02 4.15v0c0 2.7-0.757 4.723-2.27 6.07-1.52 1.353-3.563 2.03-6.13 2.03zM89.5 0.6c-3.333 0-5.823-1.093-7.47-3.28-1.653-2.18-2.48-5.67-2.48-10.47v0c0-4.7 0.817-8.167 2.45-10.4 1.633-2.233 4.117-3.35 7.45-3.35v0c2.933 0 5.11 0.973 6.53 2.92 1.413 1.953 2.12 5.097 2.12 9.43v0 2.6h-14.25c0.033 3.067 0.51 5.317 1.43 6.75 0.913 1.433 2.353 2.15 4.32 2.15v0c1.333 0 2.41-0.533 3.23-1.6 0.813-1.067 1.22-2.5 1.22-4.3v0h4.05c0 2.933-0.79 5.257-2.37 6.97-1.587 1.72-3.663 2.58-6.23 2.58zM83.9-15.6h9.9c0-2.5-0.367-4.4-1.1-5.7-0.733-1.3-1.817-1.95-3.25-1.95v0c-1.767 0-3.09 0.623-3.97 1.87-0.887 1.253-1.413 3.18-1.58 5.78zM109.75 0.6c-2.1 0-3.71-0.627-4.83-1.88-1.113-1.247-1.67-3.27-1.67-6.07v0-18.95h4.1v18.65c0 1.7 0.317 2.89 0.95 3.57 0.633 0.687 1.55 1.03 2.75 1.03v0c1.367 0 2.527-0.65 3.48-1.95 0.947-1.3 1.42-3.05 1.42-5.25v0-16.05h4.1v26.3h-3.1l-0.55-3.05h-0.3c-1.367 2.433-3.483 3.65-6.35 3.65zM126.05 0v-26.3h3.1l0.55 3.05h0.3c1.3-2.433 3.3-3.65 6-3.65v0c2.833 0 4.7 1.267 5.6 3.8v0c0.667-1.233 1.573-2.177 2.72-2.83 1.153-0.647 2.38-0.97 3.68-0.97v0c4.133 0 6.2 2.65 6.2 7.95v0 18.95h-4.1v-18.65c0-1.7-0.3-2.893-0.9-3.58-0.6-0.68-1.433-1.02-2.5-1.02v0c-1.267 0-2.333 0.65-3.2 1.95-0.867 1.3-1.3 3.05-1.3 5.25v0 16.05h-4.1v-18.65c0-1.7-0.3-2.893-0.9-3.58-0.6-0.68-1.433-1.02-2.5-1.02v0c-1.267 0-2.343 0.65-3.23 1.95-0.88 1.3-1.32 3.05-1.32 5.25v0 16.05z" fill="#8abe53" fill-rule="nonzero" stroke="none" stroke-width="1" stroke-linecap="butt" stroke-linejoin="miter" stroke-miterlimit="10" stroke-dasharray="" stroke-dashoffset="0" font-family="none" font-weight="none" font-size="none" text-anchor="none" style="mix-blend-mode: normal" data-fill-palette-color="primary" opacity="1"></path><path transform="translate(0,80.3)" d="M11.4 0.6c-3.1 0-5.44-1.127-7.02-3.38-1.587-2.247-2.38-5.703-2.38-10.37v0c0-4.667 0.793-8.127 2.38-10.38 1.58-2.247 3.92-3.37 7.02-3.37v0c3.1 0 5.443 1.123 7.03 3.37 1.58 2.253 2.37 5.713 2.37 10.38v0c0 4.667-0.79 8.123-2.37 10.37-1.587 2.253-3.93 3.38-7.03 3.38zM11.4-3.05c3.4 0 5.1-3.05 5.1-9.15v0-1.9c0-6.1-1.7-9.15-5.1-9.15v0c-3.4 0-5.1 3.05-5.1 9.15v0 1.9c0 6.1 1.7 9.15 5.1 9.15zM25.55 0v-22.65h-2.3v-3.65h2.3v-4.2c0-1.733 0.41-3.177 1.23-4.33 0.813-1.147 2.137-1.72 3.97-1.72v0c1.167 0 2.317 0.2 3.45 0.6v0 2.85h-2.2c-1.567 0-2.35 0.8-2.35 2.4v0 4.4h4.55v3.65h-4.55v22.65z" fill="#8abe53" fill-rule="nonzero" stroke="none" stroke-width="1" stroke-linecap="butt" stroke-linejoin="miter" stroke-miterlimit="10" stroke-dasharray="" stroke-dashoffset="0" font-family="none" font-weight="none" font-size="none" text-anchor="none" style="mix-blend-mode: normal" data-fill-palette-color="primary" opacity="1"></path><path transform="translate(0,120.45)" d="M13.6 0.6c-3.4 0-6.173-0.833-8.32-2.5-2.153-1.667-3.23-4.267-3.23-7.8v0l0.05-1h4.55l-0.05 1.05c0 2.033 0.623 3.573 1.87 4.62 1.253 1.053 2.897 1.58 4.93 1.58v0c2.3 0 4.077-0.493 5.33-1.48 1.247-0.98 1.87-2.387 1.87-4.22v0c0-1.233-0.34-2.243-1.02-3.03-0.687-0.78-1.537-1.403-2.55-1.87-1.02-0.467-2.413-0.983-4.18-1.55v0c-2.167-0.733-3.917-1.433-5.25-2.1-1.333-0.667-2.477-1.643-3.43-2.93-0.947-1.28-1.42-2.97-1.42-5.07v0c0-3 1.017-5.283 3.05-6.85 2.033-1.567 4.65-2.35 7.85-2.35v0c3.2 0 5.793 0.793 7.78 2.38 1.98 1.58 2.97 4.003 2.97 7.27v0 0.6h-4.55v-0.75c0-1.7-0.573-3.033-1.72-4-1.153-0.967-2.613-1.45-4.38-1.45v0c-1.9 0-3.433 0.407-4.6 1.22-1.167 0.82-1.75 2.013-1.75 3.58v0c0 1.167 0.333 2.123 1 2.87 0.667 0.753 1.5 1.353 2.5 1.8 1 0.453 2.367 0.963 4.1 1.53v0c2.2 0.733 3.977 1.423 5.33 2.07 1.347 0.653 2.497 1.62 3.45 2.9 0.947 1.287 1.42 2.947 1.42 4.98v0c0 3.667-1.04 6.333-3.12 8-2.087 1.667-4.913 2.5-8.48 2.5zM38.15 0.6c-3.1 0-5.373-1.11-6.82-3.33-1.453-2.213-2.18-5.687-2.18-10.42v0c0-4.733 0.733-8.21 2.2-10.43 1.467-2.213 3.733-3.32 6.8-3.32v0c2.8 0 4.843 0.867 6.13 2.6 1.28 1.733 1.92 4.317 1.92 7.75v0h-4.25c0-2.367-0.273-4.077-0.82-5.13-0.553-1.047-1.547-1.57-2.98-1.57v0c-1.6 0-2.783 0.757-3.55 2.27-0.767 1.52-1.15 3.813-1.15 6.88v0 1.9c0 3.067 0.377 5.357 1.13 6.87 0.747 1.52 1.937 2.28 3.57 2.28v0c1.433 0 2.46-0.55 3.08-1.65 0.613-1.1 0.92-2.783 0.92-5.05v0h4.05c0 3-0.657 5.473-1.97 7.42-1.32 1.953-3.347 2.93-6.08 2.93zM51.5 0v-26.3h4.1v26.3zM51.4-31.4v-4.75h4.25v4.75zM71.3 0.6c-3.333 0-5.823-1.093-7.47-3.28-1.653-2.18-2.48-5.67-2.48-10.47v0c0-4.7 0.817-8.167 2.45-10.4 1.633-2.233 4.117-3.35 7.45-3.35v0c2.933 0 5.11 0.973 6.53 2.92 1.413 1.953 2.12 5.097 2.12 9.43v0 2.6h-14.25c0.033 3.067 0.51 5.317 1.43 6.75 0.913 1.433 2.353 2.15 4.32 2.15v0c1.333 0 2.41-0.533 3.23-1.6 0.813-1.067 1.22-2.5 1.22-4.3v0h4.05c0 2.933-0.79 5.257-2.37 6.97-1.587 1.72-3.663 2.58-6.23 2.58zM65.7-15.6h9.9c0-2.5-0.367-4.4-1.1-5.7-0.733-1.3-1.817-1.95-3.25-1.95v0c-1.767 0-3.09 0.623-3.97 1.87-0.887 1.253-1.413 3.18-1.58 5.78zM85.05 0v-26.3h3.1l0.55 3.05h0.3c1.367-2.433 3.483-3.65 6.35-3.65v0c2.1 0 3.707 0.623 4.82 1.87 1.12 1.253 1.68 3.28 1.68 6.08v0 18.95h-4.1v-18.65c0-1.7-0.317-2.893-0.95-3.58-0.633-0.68-1.55-1.02-2.75-1.02v0c-1.367 0-2.523 0.65-3.47 1.95-0.953 1.3-1.43 3.05-1.43 5.25v0 16.05zM115.65 0.6c-3.1 0-5.377-1.11-6.83-3.33-1.447-2.213-2.17-5.687-2.17-10.42v0c0-4.733 0.733-8.21 2.2-10.43 1.467-2.213 3.733-3.32 6.8-3.32v0c2.8 0 4.84 0.867 6.12 2.6 1.287 1.733 1.93 4.317 1.93 7.75v0h-4.25c0-2.367-0.273-4.077-0.82-5.13-0.553-1.047-1.547-1.57-2.98-1.57v0c-1.6 0-2.783 0.757-3.55 2.27-0.767 1.52-1.15 3.813-1.15 6.88v0 1.9c0 3.067 0.373 5.357 1.12 6.87 0.753 1.52 1.947 2.28 3.58 2.28v0c1.433 0 2.457-0.55 3.07-1.65 0.62-1.1 0.93-2.783 0.93-5.05v0h4.05c0 3-0.66 5.473-1.98 7.42-1.313 1.953-3.337 2.93-6.07 2.93zM137.4 0.6c-3.333 0-5.827-1.093-7.48-3.28-1.647-2.18-2.47-5.67-2.47-10.47v0c0-4.7 0.817-8.167 2.45-10.4 1.633-2.233 4.117-3.35 7.45-3.35v0c2.933 0 5.11 0.973 6.53 2.92 1.413 1.953 2.12 5.097 2.12 9.43v0 2.6h-14.25c0.033 3.067 0.507 5.317 1.42 6.75 0.92 1.433 2.363 2.15 4.33 2.15v0c1.333 0 2.407-0.533 3.22-1.6 0.82-1.067 1.23-2.5 1.23-4.3v0h4.05c0 2.933-0.79 5.257-2.37 6.97-1.587 1.72-3.663 2.58-6.23 2.58zM131.8-15.6h9.9c0-2.5-0.367-4.4-1.1-5.7-0.733-1.3-1.817-1.95-3.25-1.95v0c-1.767 0-3.09 0.623-3.97 1.87-0.887 1.253-1.413 3.18-1.58 5.78z" fill="#8abe53" fill-rule="nonzero" stroke="none" stroke-width="1" stroke-linecap="butt" stroke-linejoin="miter" stroke-miterlimit="10" stroke-dasharray="" stroke-dashoffset="0" font-family="none" font-weight="none" font-size="none" text-anchor="none" style="mix-blend-mode: normal" data-fill-palette-color="primary" opacity="1"></path></g></svg></g></svg></g><g transform="matrix(1,0,0,1,0,209.61832555340973)"><svg viewBox="0 0 109.86416483985052 8.112933404482595" height="8.112933404482595" width="109.86416483985052"><g transform="matrix(1,0,0,1,0,0)"><svg width="109.86416483985052" viewBox="0.98 -34.55 659.53 48.709999999999994" height="8.112933404482595" data-palette-color="#9fa6b2"><path d="M0.98 9.79L18.92-32.35 24.17-32.35 6.23 9.79 0.98 9.79ZM2.66 11.5L7.5 11.5 25.63-31.1 26.68-31.1 8.15 12.43 2.25 12.43 2.66 11.5ZM30.1 0L30.1-3.66 35.47-3.66 35.47-16.72 30.1-16.72 30.1-20.39 35.47-20.39 35.47-23.93Q35.47-26.27 36.24-28.22 37.01-30.18 38.43-31.58 39.84-32.98 41.87-33.76 43.89-34.55 46.43-34.55L46.43-34.55Q48.65-34.55 50.36-34 52.07-33.45 53.28-32.48 54.49-31.52 55.22-30.2 55.95-28.88 56.25-27.32L56.25-27.32 51.22-27.32Q51-27.83 50.66-28.33 50.31-28.83 49.75-29.24 49.19-29.64 48.39-29.9 47.58-30.15 46.43-30.15L46.43-30.15Q45.33-30.15 44.3-29.8 43.26-29.44 42.47-28.72 41.67-28 41.2-26.9 40.72-25.81 40.72-24.34L40.72-24.34 40.72-20.39 52.02-20.39 52.02-16.72 40.72-16.72 40.72-3.66 49.02-3.66 49.02 0 30.1 0ZM52.68-24.68L52.68-25.61 58.01-25.61 58.01-25.93Q58.01-27.08 57.76-28.14 57.52-29.2 57.1-30.15 56.69-31.1 56.14-31.91 55.59-32.71 54.98-33.35L54.98-33.35Q55.95-32.86 56.71-31.98 57.47-31.1 57.97-30.09 58.47-29.08 58.73-28.08 58.98-27.08 58.98-26.34L58.98-26.34 58.98-24.68 52.68-24.68ZM42.43-22.09L42.43-22.63Q42.43-24.37 42.77-25.51 43.11-26.66 43.7-27.33 44.28-28 45.05-28.27 45.82-28.54 46.68-28.54L46.68-28.54Q47.29-28.54 47.79-28.39 48.29-28.25 48.65-28.03 49.02-27.81 49.27-27.55 49.51-27.29 49.63-27.05L49.63-27.05Q48.73-27.51 47.87-27.6 47.02-27.69 46.63-27.69L46.63-27.69Q46.02-27.69 45.44-27.49 44.87-27.29 44.42-26.75 43.97-26.2 43.69-25.21 43.41-24.22 43.41-22.61L43.41-22.61 43.41-22.09 42.43-22.09ZM42.43-5.13L42.43-15.01 53.78-15.01 53.78-19.02 54.76-19.02 54.76-14.09 43.41-14.09 43.41-5.13 42.43-5.13ZM31.56-14.09L31.56-15.01 34.49-15.01 34.49-14.09 31.56-14.09ZM31.56 1.71L50.78 1.71 50.78-2.29 51.76-2.29 51.76 2.64 31.56 2.64 31.56 1.71ZM64.57-5.47L64.57-5.47Q64.08-6.71 63.85-8.18 63.62-9.64 63.62-11.4L63.62-11.4 63.62-19.41 59.47-19.41 59.47-23.56 68.87-23.56 68.87-13.48Q68.87-11.5 69.05-9.95 69.23-8.4 69.58-7.52L69.58-7.52Q70.01-6.4 70.72-5.62 71.43-4.83 72.32-4.35 73.21-3.86 74.25-3.64 75.29-3.42 76.41-3.42L76.41-3.42Q77.61-3.42 78.89-3.86 80.17-4.3 81.37-5.08 82.56-5.86 83.6-6.93 84.64-8.01 85.35-9.25L85.35-9.25 85.35-19.41 79.98-19.41 79.98-23.56 90.6-23.56 90.6-3.66 94.75-3.66 94.75 0 85.35 0 85.35-3.71Q84.57-2.76 83.45-1.95 82.34-1.15 80.99-0.55 79.63 0.05 78.07 0.39 76.51 0.73 74.82 0.73L74.82 0.73Q71.19 0.73 68.51-0.79 65.84-2.32 64.57-5.47ZM92.3-5.13L92.3-22.31 93.28-22.31 93.28-5.13 92.3-5.13ZM70.62-12.01L70.62-22.31 71.6-22.31 71.6-12.28Q71.6-10.38 71.97-9.11 72.33-7.84 72.94-7.03 73.55-6.23 74.34-5.79 75.12-5.35 75.95-5.1L75.95-5.1Q73.38-5.13 72-6.8 70.62-8.47 70.62-12.01L70.62-12.01ZM81.44-16.77L81.44-17.7 84.32-17.7 84.32-16.77 81.44-16.77ZM60.93-16.77L60.93-17.7 62.59-17.7 62.59-16.77 60.93-16.77ZM86.81 1.71L96.5 1.71 96.5-2.29 97.48-2.29 97.48 2.64 86.81 2.64 86.81 1.71ZM64.84-1.64L64.84-1.64Q66.74 0.42 69.14 1.43 71.53 2.44 74.85 2.44L74.85 2.44Q77.8 2.44 80.13 1.67 82.47 0.9 84.37-0.42L84.37-0.42 84.37 0.71Q82.22 2.1 79.9 2.73 77.58 3.37 74.87 3.37L74.87 3.37Q71.19 3.37 68.6 2.09 66.01 0.81 64.84-1.64ZM107.22-8.74L107.22-19.41 101.85-19.41 101.85-23.56 107.22-23.56 107.22-28.49 112.47-30.69 112.47-23.56 124.6-23.56 124.6-19.41 112.47-19.41 112.47-7.76Q112.47-5.93 113.62-5.04 114.76-4.15 116.74-4.15L116.74-4.15 123.63-4.15 123.63 0 116.74 0Q114.76 0 113.03-0.43 111.3-0.85 110-1.87 108.71-2.88 107.96-4.55 107.22-6.23 107.22-8.74L107.22-8.74ZM114.23-25.02L114.23-29.35 115.2-29.79 115.2-25.02 114.23-25.02ZM114.18-6.76L114.18-17.97 126.36-17.97 126.36-22.46 127.34-22.46 127.34-17.04 115.15-17.04 115.15-5.79Q114.32-6.01 114.18-6.76L114.18-6.76ZM103.31-16.77L103.31-17.7 106.24-17.7 106.24-16.77 103.31-16.77ZM107.07-2.1L107.07-2.1Q107.85-1 108.82-0.27 109.78 0.46 110.98 0.9 112.18 1.34 113.59 1.53 115.01 1.71 116.69 1.71L116.69 1.71 125.38 1.71 125.38-3.05 126.36-3.05 126.36 2.64 116.57 2.64Q114.69 2.64 113.15 2.39 111.61 2.15 110.43 1.6 109.25 1.05 108.4 0.13 107.56-0.78 107.07-2.1ZM135.83-5.47L135.83-5.47Q135.34-6.71 135.11-8.18 134.88-9.64 134.88-11.4L134.88-11.4 134.88-19.41 130.73-19.41 130.73-23.56 140.13-23.56 140.13-13.48Q140.13-11.5 140.31-9.95 140.49-8.4 140.83-7.52L140.83-7.52Q141.27-6.4 141.98-5.62 142.69-4.83 143.58-4.35 144.47-3.86 145.51-3.64 146.55-3.42 147.67-3.42L147.67-3.42Q148.87-3.42 150.15-3.86 151.43-4.3 152.63-5.08 153.82-5.86 154.86-6.93 155.9-8.01 156.61-9.25L156.61-9.25 156.61-19.41 151.24-19.41 151.24-23.56 161.86-23.56 161.86-3.66 166.01-3.66 166.01 0 156.61 0 156.61-3.71Q155.82-2.76 154.71-1.95 153.6-1.15 152.25-0.55 150.89 0.05 149.33 0.39 147.77 0.73 146.08 0.73L146.08 0.73Q142.45 0.73 139.77-0.79 137.1-2.32 135.83-5.47ZM163.56-5.13L163.56-22.31 164.54-22.31 164.54-5.13 163.56-5.13ZM141.88-12.01L141.88-22.31 142.86-22.31 142.86-12.28Q142.86-10.38 143.23-9.11 143.59-7.84 144.2-7.03 144.81-6.23 145.6-5.79 146.38-5.35 147.21-5.1L147.21-5.1Q144.64-5.13 143.26-6.8 141.88-8.47 141.88-12.01L141.88-12.01ZM152.7-16.77L152.7-17.7 155.58-17.7 155.58-16.77 152.7-16.77ZM132.19-16.77L132.19-17.7 133.85-17.7 133.85-16.77 132.19-16.77ZM158.07 1.71L167.76 1.71 167.76-2.29 168.74-2.29 168.74 2.64 158.07 2.64 158.07 1.71ZM136.1-1.64L136.1-1.64Q138 0.42 140.4 1.43 142.79 2.44 146.11 2.44L146.11 2.44Q149.06 2.44 151.39 1.67 153.73 0.9 155.63-0.42L155.63-0.42 155.63 0.71Q153.48 2.1 151.16 2.73 148.84 3.37 146.13 3.37L146.13 3.37Q142.45 3.37 139.86 2.09 137.27 0.81 136.1-1.64ZM174.72 0L174.72-3.66 180.09-3.66 180.09-19.41 174.72-19.41 174.72-23.56 185.34-23.56 185.34-19.48Q186.1-20.46 187.16-21.34 188.22-22.22 189.56-22.88 190.91-23.54 192.49-23.91 194.08-24.29 195.89-24.29L195.89-24.29Q196.42-24.29 197.23-24.26 198.03-24.22 198.77-24.1L198.77-24.1 198.77-19.31Q197.91-19.51 197.08-19.58 196.25-19.65 195.47-19.65L195.47-19.65Q193.52-19.65 191.77-19.03 190.03-18.41 188.66-17.22 187.29-16.04 186.41-14.33 185.53-12.62 185.34-10.42L185.34-10.42 185.34-3.66 194.13-3.66 194.13 0 174.72 0ZM187.05-5.13L187.05-8.23Q187.05-10.52 187.63-12.33 188.22-14.14 189.31-15.38 190.39-16.63 191.96-17.29 193.52-17.94 195.47-17.94L195.47-17.94Q195.89-17.94 196.52-17.88 197.16-17.82 197.85-17.7 198.55-17.58 199.26-17.4 199.96-17.21 200.52-16.97L200.52-16.97 200.52-22.73 201.5-22.73 201.5-15.75Q200.82-16.04 200.02-16.27 199.23-16.5 198.41-16.67 197.59-16.85 196.84-16.93 196.08-17.02 195.47-17.02L195.47-17.02Q193.69-17.02 192.31-16.43 190.93-15.84 189.98-14.75 189.03-13.65 188.53-12.06 188.02-10.47 188.02-8.47L188.02-8.47 188.02-5.13 187.05-5.13ZM176.18-16.77L176.18-17.7 179.06-17.7 179.06-16.77 176.18-16.77ZM176.18 1.71L195.89 1.71 195.89-2.29 196.86-2.29 196.86 2.64 176.18 2.64 176.18 1.71ZM206.02-11.33L206.02-11.33Q206.02-13.92 206.97-16.26 207.92-18.6 209.82-20.39 211.73-22.17 214.56-23.23 217.39-24.29 221.13-24.29L221.13-24.29Q224.64-24.29 227.4-23.35 230.16-22.41 232.09-20.63 234.02-18.85 235.03-16.27 236.04-13.7 236.04-10.4L236.04-10.4 211.36-10.4Q211.58-8.64 212.5-7.28 213.41-5.91 214.83-4.97 216.24-4.03 218.04-3.54 219.83-3.05 221.79-3.05L221.79-3.05Q223.37-3.05 225.02-3.31 226.67-3.56 228.13-4 229.6-4.44 230.75-4.99 231.89-5.54 232.5-6.13L232.5-6.13 233.43-6.13 235.73-3.64Q233.21-1.49 229.61-0.38 226.01 0.73 221.66 0.73L221.66 0.73Q217.88 0.73 214.96-0.2 212.05-1.12 210.06-2.76 208.07-4.39 207.04-6.59 206.02-8.79 206.02-11.33ZM213.71-8.69L237.7-8.69Q237.75-9.06 237.78-9.48 237.8-9.91 237.8-10.4L237.8-10.4Q237.8-12.48 237.38-14.37 236.95-16.26 236.13-17.88 235.31-19.51 234.12-20.85 232.92-22.19 231.41-23.14L231.41-23.14Q233.02-22.51 234.37-21.4 235.73-20.29 236.7-18.7 237.68-17.11 238.23-15.04 238.78-12.96 238.78-10.4L238.78-10.4Q238.78-10.21 238.77-9.91 238.75-9.62 238.73-9.25 238.71-8.89 238.67-8.51 238.63-8.13 238.58-7.76L238.58-7.76 215.51-7.76Q215.98-6.98 217.22-6.16 218.47-5.35 220.44-4.79L220.44-4.79Q219.22-4.79 218.16-5.08 217.1-5.37 216.23-5.88 215.37-6.4 214.72-7.12 214.07-7.84 213.71-8.69L213.71-8.69ZM211.51-13.45L230.4-13.45Q230.01-15.14 229.2-16.46 228.38-17.77 227.18-18.66 225.99-19.56 224.45-20.03 222.91-20.51 221.08-20.51L221.08-20.51Q219.1-20.51 217.48-19.98 215.85-19.46 214.63-18.52 213.41-17.58 212.62-16.28 211.83-14.99 211.51-13.45L211.51-13.45ZM214.85-14.5L213.73-14.5Q214.63-16.5 216.57-17.65 218.52-18.8 221.08-18.8L221.08-18.8Q222.13-18.8 223.12-18.63 224.11-18.46 224.95-18.1 225.79-17.75 226.43-17.24 227.06-16.72 227.43-16.06L227.43-16.06Q226.03-16.99 224.45-17.43 222.86-17.87 221.03-17.87L221.03-17.87Q218.91-17.87 217.29-16.99 215.68-16.11 214.85-14.5L214.85-14.5ZM208.97-1.07L208.97-1.07Q211.34 0.61 214.47 1.54 217.61 2.47 221.66 2.47L221.66 2.47Q225.62 2.47 229.07 1.56 232.53 0.66 235.31-1.2L235.31-1.2 235.97-0.49Q232.82 1.64 229.34 2.51 225.86 3.39 222.06 3.39L222.06 3.39Q217.1 3.39 213.84 2.2 210.58 1 208.97-1.07ZM242.32 9.79L260.26-32.35 265.51-32.35 247.57 9.79 242.32 9.79ZM244 11.5L248.84 11.5 266.97-31.1 268.02-31.1 249.49 12.43 243.59 12.43 244 11.5ZM270.83-11.33L270.83-11.33Q270.83-13.92 271.94-16.26 273.05-18.6 275.07-20.39 277.08-22.17 279.92-23.23 282.77-24.29 286.21-24.29L286.21-24.29Q289.09-24.29 291.42-23.52 293.75-22.75 295.73-21.36L295.73-21.36 295.73-23.54 300.98-23.54 300.98-15.97 295.98-15.97Q295.29-16.82 294.29-17.64 293.29-18.46 292.03-19.09 290.78-19.73 289.29-20.12 287.8-20.51 286.14-20.51L286.14-20.51Q284.01-20.51 282.18-19.82 280.35-19.14 279.01-17.92 277.67-16.7 276.9-15.04 276.13-13.38 276.13-11.43L276.13-11.43Q276.13-9.4 276.95-7.84 277.76-6.27 279.2-5.21 280.64-4.15 282.62-3.6 284.6-3.05 286.92-3.05L286.92-3.05Q290.68-3.05 293.57-4.25 296.46-5.44 298.73-7.93L298.73-7.93 301.32-4.98Q298.66-2.12 295.15-0.7 291.63 0.73 287.04 0.73L287.04 0.73Q283.18 0.73 280.17-0.13 277.15-1 275.08-2.59 273-4.17 271.92-6.4 270.83-8.62 270.83-11.33ZM297.17-13.33L297.17-14.26 302.74-14.26 302.74-22.51 303.72-22.51 303.72-13.33 297.17-13.33ZM277.89-11.43L277.89-11.43Q277.89-13.06 278.52-14.42 279.15-15.77 280.27-16.75 281.38-17.72 282.89-18.26 284.4-18.8 286.16-18.8L286.16-18.8Q287.21-18.8 288.29-18.6 289.36-18.41 290.31-18.05 291.26-17.7 292.02-17.21 292.78-16.72 293.22-16.14L293.22-16.14Q291.75-16.92 290.08-17.4 288.41-17.87 286.26-17.87L286.26-17.87Q284.55-17.87 283.18-17.35 281.82-16.82 280.85-15.94 279.89-15.06 279.37-13.89 278.86-12.72 278.86-11.43L278.86-11.43Q278.86-10.13 279.26-9.14 279.67-8.15 280.42-7.36 281.18-6.57 282.28-5.97 283.38-5.37 284.77-4.88L284.77-4.88Q283.16-5.03 281.88-5.57 280.6-6.1 279.72-6.95 278.84-7.79 278.36-8.92 277.89-10.06 277.89-11.43ZM274.32-1.12L274.32-1.12Q275.49-0.27 276.93 0.4 278.37 1.07 280.02 1.53 281.67 1.98 283.45 2.22 285.23 2.47 287.06 2.47L287.06 2.47Q289.26 2.47 291.37 2.11 293.49 1.76 295.34 1.1 297.2 0.44 298.73-0.5 300.27-1.44 301.35-2.61L301.35-2.61 302.06-1.98Q299.39 0.73 295.6 2.06 291.8 3.39 287.02 3.39L287.02 3.39Q285.04 3.39 283.09 3.1 281.13 2.81 279.42 2.23 277.71 1.66 276.38 0.82 275.05-0.02 274.32-1.12ZM309.67-11.4L309.67-11.4Q309.67-14.06 310.82-16.42 311.96-18.77 314.03-20.52 316.09-22.27 318.97-23.28 321.85-24.29 325.29-24.29L325.29-24.29Q328.91-24.29 331.75-23.33 334.6-22.36 336.56-20.65 338.53-18.95 339.56-16.6 340.6-14.26 340.6-11.5L340.6-11.5Q340.6-8.84 339.47-6.59 338.33-4.35 336.24-2.72 334.16-1.1 331.24-0.18 328.32 0.73 324.73 0.73L324.73 0.73Q321.34 0.73 318.57-0.28 315.8-1.29 313.82-2.98 311.84-4.66 310.76-6.85 309.67-9.03 309.67-11.4ZM313.5-1.12L313.5-1.12Q315.87 0.59 318.74 1.51 321.61 2.44 325.22 2.44L325.22 2.44Q328.59 2.44 331.69 1.53 334.79 0.61 337.16-1.17 339.53-2.95 340.94-5.55 342.36-8.15 342.36-11.5L342.36-11.5Q342.36-13.13 341.91-14.81 341.46-16.48 340.64-18.02 339.82-19.56 338.65-20.89 337.48-22.22 336.04-23.14L336.04-23.14Q337.67-22.41 339.03-21.22 340.38-20.02 341.33-18.49 342.29-16.97 342.81-15.19 343.34-13.4 343.34-11.5L343.34-11.5Q343.34-9.11 342.65-7.07 341.97-5.03 340.76-3.38 339.55-1.73 337.88-0.46 336.21 0.81 334.21 1.65 332.2 2.49 329.95 2.93 327.69 3.37 325.34 3.37L325.34 3.37Q323.39 3.37 321.61 3.06 319.83 2.76 318.3 2.19 316.77 1.61 315.55 0.78 314.33-0.05 313.5-1.12ZM315.09-11.5L315.09-11.5Q315.09-9.62 315.81-8.07 316.53-6.52 317.85-5.41 319.17-4.3 321.01-3.69 322.85-3.08 325.1-3.08L325.1-3.08Q327.37-3.08 329.23-3.7 331.08-4.32 332.42-5.43 333.77-6.54 334.5-8.09 335.23-9.64 335.23-11.5L335.23-11.5Q335.23-13.33 334.5-14.95 333.77-16.58 332.45-17.81 331.13-19.04 329.29-19.76 327.44-20.48 325.22-20.48L325.22-20.48Q322.9-20.48 321.03-19.79 319.17-19.09 317.85-17.88 316.53-16.67 315.81-15.04 315.09-13.4 315.09-11.5ZM316.8-11.4L316.8-11.4Q316.8-12.94 317.41-14.29 318.02-15.65 319.13-16.64 320.24-17.63 321.79-18.2 323.34-18.77 325.22-18.77L325.22-18.77Q326.42-18.77 327.54-18.52 328.66-18.26 329.62-17.77 330.57-17.29 331.3-16.59 332.03-15.89 332.47-15.01L332.47-15.01Q330.86-16.48 329.12-17.16 327.37-17.85 325.17-17.85L325.17-17.85Q323.59-17.85 322.24-17.33 320.9-16.82 319.9-15.94 318.9-15.06 318.34-13.89 317.78-12.72 317.78-11.4L317.78-11.4Q317.78-10.3 318.04-9.35 318.31-8.4 318.96-7.58 319.61-6.76 320.68-6.1 321.75-5.44 323.37-4.93L323.37-4.93Q321.9-5.03 320.69-5.55 319.48-6.08 318.62-6.93 317.75-7.79 317.27-8.94 316.8-10.08 316.8-11.4ZM349.98 0L349.98-3.66 355.35-3.66 355.35-19.41 349.98-19.41 349.98-23.56 360.6-23.56 360.6-19.9Q361.33-20.83 362.35-21.63 363.38-22.44 364.66-23.02 365.94-23.61 367.44-23.95 368.94-24.29 370.63-24.29L370.63-24.29Q374.07-24.29 376.53-22.95 378.98-21.61 380.32-18.8L380.32-18.8Q381.23-20 382.43-21.01 383.64-22.02 385.08-22.75 386.52-23.49 388.17-23.89 389.82-24.29 391.63-24.29L391.63-24.29Q394.14-24.29 396.17-23.56 398.19-22.83 399.62-21.33 401.05-19.82 401.82-17.54 402.59-15.26 402.59-12.16L402.59-12.16 402.59-3.66 407.96-3.66 407.96 0 393.19 0 393.19-3.66 397.34-3.66 397.34-9.96Q397.34-12.26 397.14-13.96 396.95-15.67 396.48-16.6L396.48-16.6Q395.56-18.53 393.98-19.34 392.41-20.14 390.28-20.14L390.28-20.14Q389.06-20.14 387.79-19.69 386.52-19.24 385.35-18.43 384.18-17.63 383.18-16.53 382.18-15.43 381.49-14.16L381.49-14.16Q381.54-13.67 381.57-13.17 381.59-12.67 381.59-12.16L381.59-12.16 381.59-3.66 385.74-3.66 385.74 0 372.19 0 372.19-3.66 376.34-3.66 376.34-10.08Q376.34-12.06 376.16-13.61 375.98-15.16 375.63-16.04L375.63-16.04Q374.78-18.26 373.14-19.2 371.51-20.14 369.29-20.14L369.29-20.14Q368.07-20.14 366.82-19.7 365.58-19.26 364.42-18.48 363.26-17.7 362.27-16.63 361.28-15.55 360.6-14.31L360.6-14.31 360.6-3.66 364.75-3.66 364.75 0 349.98 0ZM399.17-23.56L399.17-23.56Q400.83-23.14 402-22.16 403.17-21.17 403.91-19.65 404.64-18.14 404.98-16.16 405.32-14.18 405.32-11.82L405.32-11.82 405.32-5.13 404.35-5.13 404.35-11.99Q404.35-14.14 404.02-15.98 403.69-17.82 403.03-19.3 402.37-20.78 401.4-21.85 400.44-22.92 399.17-23.56ZM378.17-23.56L378.17-23.56Q379.35-23.41 380.24-22.9 381.13-22.39 381.62-21.78L381.62-21.78 380.91-21.12Q380.76-21.41 380.46-21.78 380.15-22.14 379.77-22.5 379.39-22.85 378.97-23.13 378.54-23.41 378.17-23.56ZM383.35-5.13L383.35-13.67Q383.96-14.75 384.77-15.63 385.57-16.5 386.5-17.13 387.43-17.75 388.45-18.09 389.48-18.43 390.55-18.43L390.55-18.43Q392.24-18.43 393.32-17.8 394.41-17.16 394.9-16.19L394.9-16.19Q394.14-16.75 393.09-17.13 392.04-17.5 390.5-17.5L390.5-17.5Q389.55-17.5 388.61-17.18 387.67-16.85 386.85-16.28 386.03-15.72 385.38-14.99 384.72-14.26 384.33-13.48L384.33-13.48 384.33-5.13 383.35-5.13ZM362.35-5.13L362.35-13.67Q362.96-14.75 363.77-15.63 364.57-16.5 365.5-17.13 366.43-17.75 367.46-18.09 368.48-18.43 369.56-18.43L369.56-18.43Q371.24-18.43 372.33-17.8 373.41-17.16 373.9-16.19L373.9-16.19Q373.14-16.75 372.09-17.13 371.04-17.5 369.51-17.5L369.51-17.5Q368.55-17.5 367.61-17.18 366.67-16.85 365.86-16.28 365.04-15.72 364.38-14.99 363.72-14.26 363.33-13.48L363.33-13.48 363.33-5.13 362.35-5.13ZM351.44-16.77L351.44-17.7 354.32-17.7 354.32-16.77 351.44-16.77ZM394.65 1.71L409.72 1.71 409.72-2.29 410.69-2.29 410.69 2.64 394.65 2.64 394.65 1.71ZM373.66 1.71L387.5 1.71 387.5-2.29 388.48-2.29 388.48 2.64 373.66 2.64 373.66 1.71ZM351.44 1.71L366.5 1.71 366.5-2.29 367.48-2.29 367.48 2.64 351.44 2.64 351.44 1.71ZM415.45 0L415.45-3.66 420.82-3.66 420.82-19.41 415.45-19.41 415.45-23.56 426.07-23.56 426.07-19.9Q426.8-20.83 427.83-21.63 428.85-22.44 430.14-23.02 431.42-23.61 432.92-23.95 434.42-24.29 436.11-24.29L436.11-24.29Q439.55-24.29 442-22.95 444.45-21.61 445.8-18.8L445.8-18.8Q446.7-20 447.91-21.01 449.12-22.02 450.56-22.75 452-23.49 453.65-23.89 455.29-24.29 457.1-24.29L457.1-24.29Q459.62-24.29 461.64-23.56 463.67-22.83 465.1-21.33 466.53-19.82 467.29-17.54 468.06-15.26 468.06-12.16L468.06-12.16 468.06-3.66 473.43-3.66 473.43 0 458.66 0 458.66-3.66 462.81-3.66 462.81-9.96Q462.81-12.26 462.62-13.96 462.42-15.67 461.96-16.6L461.96-16.6Q461.03-18.53 459.46-19.34 457.88-20.14 455.76-20.14L455.76-20.14Q454.54-20.14 453.27-19.69 452-19.24 450.83-18.43 449.66-17.63 448.65-16.53 447.65-15.43 446.97-14.16L446.97-14.16Q447.02-13.67 447.04-13.17 447.07-12.67 447.07-12.16L447.07-12.16 447.07-3.66 451.22-3.66 451.22 0 437.67 0 437.67-3.66 441.82-3.66 441.82-10.08Q441.82-12.06 441.64-13.61 441.45-15.16 441.11-16.04L441.11-16.04Q440.26-18.26 438.62-19.2 436.98-20.14 434.76-20.14L434.76-20.14Q433.54-20.14 432.3-19.7 431.05-19.26 429.89-18.48 428.73-17.7 427.74-16.63 426.75-15.55 426.07-14.31L426.07-14.31 426.07-3.66 430.22-3.66 430.22 0 415.45 0ZM464.65-23.56L464.65-23.56Q466.31-23.14 467.48-22.16 468.65-21.17 469.38-19.65 470.11-18.14 470.46-16.16 470.8-14.18 470.8-11.82L470.8-11.82 470.8-5.13 469.82-5.13 469.82-11.99Q469.82-14.14 469.49-15.98 469.16-17.82 468.5-19.3 467.84-20.78 466.88-21.85 465.91-22.92 464.65-23.56ZM443.65-23.56L443.65-23.56Q444.82-23.41 445.71-22.9 446.6-22.39 447.09-21.78L447.09-21.78 446.38-21.12Q446.24-21.41 445.93-21.78 445.63-22.14 445.25-22.5 444.87-22.85 444.44-23.13 444.02-23.41 443.65-23.56ZM448.83-5.13L448.83-13.67Q449.44-14.75 450.24-15.63 451.05-16.5 451.97-17.13 452.9-17.75 453.93-18.09 454.95-18.43 456.03-18.43L456.03-18.43Q457.71-18.43 458.8-17.8 459.88-17.16 460.37-16.19L460.37-16.19Q459.62-16.75 458.57-17.13 457.52-17.5 455.98-17.5L455.98-17.5Q455.03-17.5 454.09-17.18 453.15-16.85 452.33-16.28 451.51-15.72 450.85-14.99 450.19-14.26 449.8-13.48L449.8-13.48 449.8-5.13 448.83-5.13ZM427.83-5.13L427.83-13.67Q428.44-14.75 429.24-15.63 430.05-16.5 430.98-17.13 431.91-17.75 432.93-18.09 433.96-18.43 435.03-18.43L435.03-18.43Q436.72-18.43 437.8-17.8 438.89-17.16 439.38-16.19L439.38-16.19Q438.62-16.75 437.57-17.13 436.52-17.5 434.98-17.5L434.98-17.5Q434.03-17.5 433.09-17.18 432.15-16.85 431.33-16.28 430.51-15.72 429.86-14.99 429.2-14.26 428.81-13.48L428.81-13.48 428.81-5.13 427.83-5.13ZM416.92-16.77L416.92-17.7 419.8-17.7 419.8-16.77 416.92-16.77ZM460.13 1.71L475.19 1.71 475.19-2.29 476.17-2.29 476.17 2.64 460.13 2.64 460.13 1.71ZM439.13 1.71L452.98 1.71 452.98-2.29 453.95-2.29 453.95 2.64 439.13 2.64 439.13 1.71ZM416.92 1.71L431.98 1.71 431.98-2.29 432.96-2.29 432.96 2.64 416.92 2.64 416.92 1.71ZM483.17-5.47L483.17-5.47Q482.68-6.71 482.45-8.18 482.22-9.64 482.22-11.4L482.22-11.4 482.22-19.41 478.07-19.41 478.07-23.56 487.47-23.56 487.47-13.48Q487.47-11.5 487.65-9.95 487.84-8.4 488.18-7.52L488.18-7.52Q488.62-6.4 489.33-5.62 490.03-4.83 490.92-4.35 491.82-3.86 492.85-3.64 493.89-3.42 495.01-3.42L495.01-3.42Q496.21-3.42 497.49-3.86 498.77-4.3 499.97-5.08 501.17-5.86 502.2-6.93 503.24-8.01 503.95-9.25L503.95-9.25 503.95-19.41 498.58-19.41 498.58-23.56 509.2-23.56 509.2-3.66 513.35-3.66 513.35 0 503.95 0 503.95-3.71Q503.17-2.76 502.06-1.95 500.95-1.15 499.59-0.55 498.24 0.05 496.67 0.39 495.11 0.73 493.43 0.73L493.43 0.73Q489.79 0.73 487.12-0.79 484.44-2.32 483.17-5.47ZM510.91-5.13L510.91-22.31 511.88-22.31 511.88-5.13 510.91-5.13ZM489.23-12.01L489.23-22.31 490.2-22.31 490.2-12.28Q490.2-10.38 490.57-9.11 490.94-7.84 491.55-7.03 492.16-6.23 492.94-5.79 493.72-5.35 494.55-5.1L494.55-5.1Q491.99-5.13 490.61-6.8 489.23-8.47 489.23-12.01L489.23-12.01ZM500.04-16.77L500.04-17.7 502.92-17.7 502.92-16.77 500.04-16.77ZM479.54-16.77L479.54-17.7 481.2-17.7 481.2-16.77 479.54-16.77ZM505.41 1.71L515.11 1.71 515.11-2.29 516.08-2.29 516.08 2.64 505.41 2.64 505.41 1.71ZM483.44-1.64L483.44-1.64Q485.35 0.42 487.74 1.43 490.13 2.44 493.45 2.44L493.45 2.44Q496.41 2.44 498.74 1.67 501.07 0.9 502.97-0.42L502.97-0.42 502.97 0.71Q500.82 2.1 498.51 2.73 496.19 3.37 493.48 3.37L493.48 3.37Q489.79 3.37 487.2 2.09 484.61 0.81 483.44-1.64ZM522.36 0L522.36-3.66 527.73-3.66 527.73-19.41 522.36-19.41 522.36-23.56 532.98-23.56 532.98-19.87Q533.73-20.8 534.79-21.61 535.86-22.41 537.17-23.01 538.49-23.61 540.03-23.95 541.57-24.29 543.25-24.29L543.25-24.29Q545.79-24.29 547.87-23.57 549.94-22.85 551.41-21.35 552.87-19.85 553.67-17.57 554.46-15.28 554.46-12.16L554.46-12.16 554.46-3.66 559.83-3.66 559.83 0 545.06 0 545.06-3.66 549.21-3.66 549.21-10.08Q549.21-12.06 549.03-13.61 548.84-15.16 548.5-16.04L548.5-16.04Q548.06-17.16 547.39-17.94 546.72-18.73 545.88-19.21 545.04-19.7 544.03-19.92 543.03-20.14 541.91-20.14L541.91-20.14Q540.71-20.14 539.43-19.7 538.15-19.26 536.94-18.47 535.73-17.68 534.7-16.6 533.66-15.53 532.98-14.28L532.98-14.28 532.98-3.66 537.13-3.66 537.13 0 522.36 0ZM556.22-5.13L556.22-11.99Q556.22-14.14 555.89-15.98 555.56-17.82 554.9-19.3 554.24-20.78 553.28-21.85 552.31-22.92 551.04-23.56L551.04-23.56Q552.7-23.14 553.87-22.16 555.05-21.17 555.78-19.65 556.51-18.14 556.85-16.16 557.19-14.18 557.19-11.82L557.19-11.82 557.19-5.13 556.22-5.13ZM534.73-5.13L534.73-13.67Q535.34-14.75 536.19-15.63 537.03-16.5 538.02-17.13 539.01-17.75 540.09-18.09 541.18-18.43 542.25-18.43L542.25-18.43Q543.94-18.43 544.99-17.8 546.04-17.16 546.53-16.19L546.53-16.19Q545.77-16.75 544.76-17.14 543.74-17.53 542.2-17.53L542.2-17.53Q541.25-17.53 540.28-17.18 539.3-16.82 538.42-16.24 537.54-15.65 536.83-14.89 536.12-14.14 535.71-13.35L535.71-13.35 535.71-5.13 534.73-5.13ZM523.82-16.77L523.82-17.7 526.7-17.7 526.7-16.77 523.82-16.77ZM546.53 1.71L561.59 1.71 561.59-2.29 562.57-2.29 562.57 2.64 546.53 2.64 546.53 1.71ZM523.82 1.71L538.88 1.71 538.88-2.29 539.86-2.29 539.86 2.64 523.82 2.64 523.82 1.71ZM571.67-29.64L571.67-34.52 577.65-34.52 577.65-29.64 571.67-29.64ZM573.13-27L573.13-27.93 579.41-27.93 579.41-33.15 580.38-33.15 580.38-27 573.13-27ZM566.54 0L566.54-3.66 573.13-3.66 572.4-19.41 566.54-19.41 566.54-23.56 577.65-23.56 577.65-3.66 583.27-3.66 583.27 0 566.54 0ZM579.36-5.13L579.36-22.31 580.34-22.31 580.34-5.13 579.36-5.13ZM568.01-16.77L568.01-17.7 571.38-17.7 571.38-16.77 568.01-16.77ZM568.01 1.71L585.02 1.71 585.02-2.29 586-2.29 586 2.64 568.01 2.64 568.01 1.71ZM593.91-8.74L593.91-19.41 588.54-19.41 588.54-23.56 593.91-23.56 593.91-28.49 599.16-30.69 599.16-23.56 611.29-23.56 611.29-19.41 599.16-19.41 599.16-7.76Q599.16-5.93 600.3-5.04 601.45-4.15 603.43-4.15L603.43-4.15 610.31-4.15 610.31 0 603.43 0Q601.45 0 599.72-0.43 597.98-0.85 596.69-1.87 595.4-2.88 594.65-4.55 593.91-6.23 593.91-8.74L593.91-8.74ZM600.91-25.02L600.91-29.35 601.89-29.79 601.89-25.02 600.91-25.02ZM600.87-6.76L600.87-17.97 613.05-17.97 613.05-22.46 614.02-22.46 614.02-17.04 601.84-17.04 601.84-5.79Q601.01-6.01 600.87-6.76L600.87-6.76ZM590-16.77L590-17.7 592.93-17.7 592.93-16.77 590-16.77ZM593.76-2.1L593.76-2.1Q594.54-1 595.51-0.27 596.47 0.46 597.67 0.9 598.86 1.34 600.28 1.53 601.7 1.71 603.38 1.71L603.38 1.71 612.07 1.71 612.07-3.05 613.05-3.05 613.05 2.64 603.26 2.64Q601.38 2.64 599.84 2.39 598.3 2.15 597.12 1.6 595.93 1.05 595.09 0.13 594.25-0.78 593.76-2.1ZM626.33 7.86L632.53 7.86 636.26 0.9 622.64-19.9 617.42-19.9 617.42-23.56 634.09-23.56 634.09-19.9 628.92-19.9 639-4.17 647.45-19.9 641.51-19.9 641.51-23.56 657.77-23.56 657.77-19.9 652.82-19.9 635.68 11.52 626.33 11.52 626.33 7.86ZM627.79 13.23L636.95 13.23 654.11-18.19 659.53-18.19 659.53-22.19 660.51-22.19 660.51-17.26 654.67-17.26 637.56 14.16 627.79 14.16 627.79 13.23ZM639.19-7.5L632.36-18.19 635.85-18.19 635.85-22.19 636.83-22.19 636.83-17.26 634.09-17.26 639.73-8.47 639.19-7.5ZM642.71-17.26L642.71-18.19 645.25-18.19 644.76-17.26 642.71-17.26ZM618.88-17.26L618.88-18.19 622.42-18.19 623.03-17.26 618.88-17.26Z" opacity="1" transform="matrix(1,0,0,1,0,0)" fill="#9fa6b2" class="slogan-text-1" data-fill-palette-color="secondary" id="text-1"></path></svg></g></svg></g></svg></g></svg></g><g transform="matrix(1,0,0,1,0,51.58671297378797)"><svg viewBox="0 0 115.64648930510583 115.64648930510583" height="115.64648930510583" width="115.64648930510583"><g><svg xmlns="http://www.w3.org/2000/svg" xmlns:xlink="http://www.w3.org/1999/xlink" version="1.1" x="0" y="0" viewBox="0 0 55 55" style="enable-background:new 0 0 55 55;" xml:space="preserve" height="115.64648930510583" width="115.64648930510583" class="icon-icon-0" data-fill-palette-color="accent" id="icon-0"><path d="M49 0c-3.309 0-6 2.691-6 6 0 1.035 0.263 2.009 0.726 2.86l-9.829 9.829C32.542 17.634 30.846 17 29 17s-3.542 0.634-4.898 1.688l-7.669-7.669C16.785 10.424 17 9.74 17 9c0-2.206-1.794-4-4-4S9 6.794 9 9s1.794 4 4 4c0.74 0 1.424-0.215 2.019-0.567l7.669 7.669C21.634 21.458 21 23.154 21 25s0.634 3.542 1.688 4.897L10.024 42.562C8.958 41.595 7.549 41 6 41c-3.309 0-6 2.691-6 6s2.691 6 6 6 6-2.691 6-6c0-1.035-0.263-2.009-0.726-2.86l12.829-12.829c1.106 0.86 2.44 1.436 3.898 1.619v10.16c-2.833 0.478-5 2.942-5 5.91 0 3.309 2.691 6 6 6s6-2.691 6-6c0-2.967-2.167-5.431-5-5.91v-10.16c1.458-0.183 2.792-0.759 3.898-1.619l7.669 7.669C41.215 39.576 41 40.26 41 41c0 2.206 1.794 4 4 4s4-1.794 4-4-1.794-4-4-4c-0.74 0-1.424 0.215-2.019 0.567l-7.669-7.669C36.366 28.542 37 26.846 37 25s-0.634-3.542-1.688-4.897l9.665-9.665C46.042 11.405 47.451 12 49 12c3.309 0 6-2.691 6-6S52.309 0 49 0zM11 9c0-1.103 0.897-2 2-2s2 0.897 2 2-0.897 2-2 2S11 10.103 11 9zM6 51c-2.206 0-4-1.794-4-4s1.794-4 4-4 4 1.794 4 4S8.206 51 6 51zM33 49c0 2.206-1.794 4-4 4s-4-1.794-4-4 1.794-4 4-4S33 46.794 33 49zM29 31c-3.309 0-6-2.691-6-6s2.691-6 6-6 6 2.691 6 6S32.309 31 29 31zM47 41c0 1.103-0.897 2-2 2s-2-0.897-2-2 0.897-2 2-2S47 39.897 47 41zM49 10c-2.206 0-4-1.794-4-4s1.794-4 4-4 4 1.794 4 4S51.206 10 49 10z" fill="#398378" data-fill-palette-color="accent"></path></svg></g></svg></g></svg></g><defs></defs></svg><rect width="300.3672988245731" height="200" fill="none" stroke="none" visibility="hidden"></rect></g></svg></g></svg>